<svg xmlns="http://www.w3.org/2000/svg" viewBox="0 0 226.98 184.38"><defs><style>.cls-1{fill:#fff;}</style></defs><title>アセット 1</title><g id="レイヤー_2" data-name="レイヤー 2"><g id="_2" data-name="2"><path class="cls-1" d="M226.61,22.19c.08-.12.18-.24.27-.36a93,93,0,0,1-21.07,6.44c-1.75.26-3.52.49-5.3.63A46.68,46.68,0,0,0,217.95,9.67a50.28,50.28,0,0,0,2.79-6.06l-.27.15c0-.12.11-.23.15-.35A93.23,93.23,0,0,1,191.05,14.7a46.52,46.52,0,0,0-79.47,41.6c0,.29.06.56.11.85A131.93,131.93,0,0,1,24.56,18.22c-3-3.05-5.87-6.22-8.56-9.58l0,.07-.17-.19a46.44,46.44,0,0,0,8.33,57.19,49.89,49.89,0,0,0,5.73,4.92A46.38,46.38,0,0,1,9.12,64.84c0,.2,0,.39,0,.59a46.45,46.45,0,0,0,27.16,42.16A47.32,47.32,0,0,0,46,111.15a46.61,46.61,0,0,1-11.85,1.55,46,46,0,0,1-7.73-.74c-.26-.07-.54-.09-.79-.17l0,.1-.27,0a46.63,46.63,0,0,0,36,31.59,48.48,48.48,0,0,0,7.25.88A93.38,93.38,0,0,1,11.1,164.12c-3,0-6-.24-8.93-.52-.68-.12-1.38-.17-2-.33l.39.23-.52,0a131.74,131.74,0,0,0,71.35,20.91c47.3,0,82.7-21.69,105-51.45l.23-.29c2.13-2.86,4.09-5.81,6-8.8.39-.61.82-1.2,1.19-1.81,1.74-2.86,3.3-5.8,4.82-8.75.38-.74.81-1.45,1.17-2.19q2.65-5.4,4.79-11l.05-.13a134.18,134.18,0,0,0,9.25-48.05q0-3-.14-6A94.55,94.55,0,0,0,222.8,27.37c1.43-1.74,2.84-3.5,4.17-5.32Z"/></g></g></svg>